<?xml version="1.0" standalone="no"?>
<!DOCTYPE svg PUBLIC "-//W3C//DTD SVG 20010904//EN"
 "http://www.w3.org/TR/2001/REC-SVG-20010904/DTD/svg10.dtd">
<svg version="1.0" xmlns="http://www.w3.org/2000/svg"
 width="512.000000pt" height="512.000000pt" viewBox="0 0 512.000000 512.000000"
 preserveAspectRatio="xMidYMid meet">
<metadata>
Created by potrace 1.16, written by Peter Selinger 2001-2019
</metadata>
<g transform="translate(0.000000,512.000000) scale(0.100000,-0.100000)"
fill="#000000" stroke="none">
<path d="M480 4464 c-216 -56 -386 -220 -455 -437 l-25 -78 0 -1379 c0 -952 3
-1395 11 -1432 6 -29 31 -95 55 -145 63 -132 155 -224 285 -286 52 -25 118
-50 147 -56 37 -8 659 -11 2065 -11 2241 0 2058 -6 2212 70 145 72 257 197
313 350 l27 75 3 1399 c3 1561 7 1449 -69 1604 -59 120 -156 216 -281 276 -51
24 -117 49 -146 55 -37 8 -658 11 -2070 10 -1721 0 -2025 -2 -2072 -15z m4091
-442 c69 -36 111 -99 113 -171 l1 -49 -860 -649 c-474 -356 -950 -717 -1059
-801 -110 -84 -204 -151 -210 -149 -6 3 -423 314 -926 692 -503 378 -979 735
-1058 794 l-143 106 5 54 c7 77 47 138 115 173 l53 28 1958 0 1958 0 53 -28z
m115 -2770 c-3 -2 -302 220 -664 495 -613 463 -659 499 -644 514 10 9 307 236
662 504 l645 487 3 -998 c1 -548 0 -999 -2 -1002z m-3594 1497 c359 -270 654
-494 656 -498 2 -7 -1301 -991 -1313 -991 -3 0 -5 445 -5 990 0 545 2 990 5
990 3 0 298 -221 657 -491z m1202 -903 c257 -195 275 -195 532 0 108 82 169
122 177 117 8 -4 275 -206 595 -448 l582 -440 -809 -3 c-445 -1 -1177 -1
-1625 0 l-816 3 592 447 c326 246 596 447 601 447 4 1 81 -55 171 -123z"/>
</g>
</svg>
